<?xml version="1.0" encoding="UTF-8" standalone="no"?>
<!-- Created with Inkscape (http://www.inkscape.org/) -->

<svg
   xmlns:dc="http://purl.org/dc/elements/1.1/"
   xmlns:cc="http://creativecommons.org/ns#"
   xmlns:rdf="http://www.w3.org/1999/02/22-rdf-syntax-ns#"
   xmlns:svg="http://www.w3.org/2000/svg"
   xmlns="http://www.w3.org/2000/svg"
   xmlns:xlink="http://www.w3.org/1999/xlink"
   xmlns:sodipodi="http://sodipodi.sourceforge.net/DTD/sodipodi-0.dtd"
   xmlns:inkscape="http://www.inkscape.org/namespaces/inkscape"
   width="150mm"
   height="150mm"
   viewBox="0 0 150 150"
   version="1.1"
   id="svg840"
   inkscape:version="0.92.5 (2060ec1f9f, 2020-04-08)"
   sodipodi:docname="maison3.svg">
  <defs
     id="defs834">
    <radialGradient
       inkscape:collect="always"
       xlink:href="#linearGradient920-9"
       id="radialGradient924"
       gradientUnits="userSpaceOnUse"
       gradientTransform="matrix(0.86631123,-2.4568629e-7,3.1178391e-7,1.0828894,29.563834,-62.680718)"
       cx="52.916656"
       cy="280.6412"
       fx="52.916656"
       fy="280.6412"
       r="61.082745" />
    <linearGradient
       id="linearGradient920-9"
       inkscape:collect="always">
      <stop
         id="stop926"
         offset="0"
         style="stop-color:#ca3341;stop-opacity:1" />
      <stop
         id="stop928"
         offset="1"
         style="stop-color:#4e466e;stop-opacity:1" />
    </linearGradient>
  </defs>
  <sodipodi:namedview
     id="base"
     pagecolor="#ffffff"
     bordercolor="#666666"
     borderopacity="1.0"
     inkscape:pageopacity="0.0"
     inkscape:pageshadow="2"
     inkscape:zoom="3.4549041"
     inkscape:cx="317.31488"
     inkscape:cy="296.13722"
     inkscape:document-units="mm"
     inkscape:current-layer="layer1"
     showgrid="false"
     inkscape:window-width="2880"
     inkscape:window-height="1672"
     inkscape:window-x="0"
     inkscape:window-y="54"
     inkscape:window-maximized="1"
     inkscape:lockguides="false">
    <inkscape:grid
       type="xygrid"
       id="grid2179" />
  </sodipodi:namedview>
  <metadata
     id="metadata837">
    <rdf:RDF>
      <cc:Work
         rdf:about="">
        <dc:format>image/svg+xml</dc:format>
        <dc:type
           rdf:resource="http://purl.org/dc/dcmitype/StillImage" />
        <dc:title></dc:title>
      </cc:Work>
    </rdf:RDF>
  </metadata>
  <g
     inkscape:label="Layer 1"
     inkscape:groupmode="layer"
     id="layer1"
     transform="translate(0,-147)">
    <path
       style="color:#000000;font-style:normal;font-variant:normal;font-weight:normal;font-stretch:normal;font-size:medium;line-height:normal;font-family:sans-serif;font-variant-ligatures:normal;font-variant-position:normal;font-variant-caps:normal;font-variant-numeric:normal;font-variant-alternates:normal;font-feature-settings:normal;text-indent:0;text-align:start;text-decoration:none;text-decoration-line:none;text-decoration-style:solid;text-decoration-color:#000000;letter-spacing:normal;word-spacing:normal;text-transform:none;writing-mode:lr-tb;direction:ltr;text-orientation:mixed;dominant-baseline:auto;baseline-shift:baseline;text-anchor:start;white-space:normal;shape-padding:0;clip-rule:nonzero;display:inline;overflow:visible;visibility:visible;opacity:1;isolation:auto;mix-blend-mode:normal;color-interpolation:sRGB;color-interpolation-filters:linearRGB;solid-color:#000000;solid-opacity:1;vector-effect:none;fill:url(#radialGradient924);fill-opacity:1;fill-rule:nonzero;stroke:none;stroke-width:6.76499987;stroke-linecap:butt;stroke-linejoin:round;stroke-miterlimit:4;stroke-dasharray:none;stroke-dashoffset:0;stroke-opacity:1;color-rendering:auto;image-rendering:auto;shape-rendering:auto;text-rendering:auto;enable-background:accumulate"
       d="m 75.35739,171.69401 c -0.880345,0.0125 -1.72113,0.36774 -2.34375,0.99024 l -52.916016,52.91797 c -2.128814,2.13135 -0.619815,5.77266 2.392578,5.77344 h 9.845704 v 36.30468 c 10e-6,1.86827 1.514539,3.38281 3.382812,3.38282 15.005316,-10e-6 28.577252,-3.59628 39.6875,-9.30274 11.110248,5.70646 24.682192,9.30274 39.687502,9.30274 1.86827,-2e-5 3.3828,-1.51455 3.38281,-3.38282 v -36.30468 h 9.84571 c 3.01239,-7.9e-4 4.52138,-3.64209 2.39257,-5.77344 l -14.88476,-14.88477 v -22.41211 c -0.001,-1.86751 -1.5153,-3.38084 -3.38281,-3.38086 H 101.8652 c -1.867508,2e-5 -3.381718,1.51335 -3.38281,3.38086 v 5.06446 L 77.798796,172.68425 c -0.646548,-0.64644 -1.527226,-1.00364 -2.441406,-0.99024 z m 0.04883,8.16797 24.066406,24.06446 c 2.130554,2.1315 5.774624,0.6231 5.775394,-2.39063 v -9.84765 h 3.8164 v 20.42968 c 2.2e-4,0.89757 0.35714,1.75827 0.99219,2.39258 l 10.10156,10.10156 h -5.06445 c -1.86751,2e-5 -3.38172,1.51335 -3.38281,3.38086 v 36.07422 c -10.80894,-0.41895 -20.814619,-2.65798 -29.265628,-6.3125 11.422376,-7.6704 19.160558,-18.0444 20.142578,-29.4707 0.009,-0.0968 0.0133,-0.19386 0.0137,-0.29102 0,-4.72041 -1.63043,-8.98394 -4.628904,-11.98242 -2.998471,-2.99847 -7.261996,-4.62892 -11.982422,-4.62891 -4.720416,2e-5 -8.213795,1.65151 -10.382812,3.38672 -0.09002,0.072 -0.114972,0.13804 -0.201172,0.21094 -0.0862,-0.0729 -0.11115,-0.13892 -0.201172,-0.21094 -2.169015,-1.7352 -5.662397,-3.3867 -10.382812,-3.38672 -4.720425,-1e-5 -8.98395,1.63044 -11.982422,4.62891 -2.998472,2.99848 -4.628906,7.26201 -4.628906,11.98242 3.75e-4,0.0972 0.0049,0.19425 0.01367,0.29102 0.982022,11.4263 8.720201,21.8003 20.142579,29.4707 -8.451009,3.65452 -18.45668,5.89355 -29.265626,6.3125 v -36.07422 c -0.0011,-1.86752 -1.515322,-3.38086 -3.382841,-3.38086 h -5.064453 z m -10.583984,38.28516 c 3.217096,1e-5 5.017982,0.99369 6.15625,1.9043 1.138267,0.91061 1.517347,1.54231 1.517347,1.54231 1.5875,2.38125 2.618374,4.50548 2.910417,4.49792 0.237123,0.008 1.322917,-2.11667 2.910417,-4.49792 0,0 0.379017,-0.6317 1.517287,-1.54231 1.138271,-0.91062 2.939156,-1.90429 6.15625,-1.9043 3.217084,-1e-5 5.567485,1.01475 7.199219,2.64648 1.611963,1.61197 2.604651,3.94029 2.628906,7.09766 -0.845947,8.93048 -7.292428,17.9994 -17.955078,24.88281 -0.75099,0.48481 -1.66679,0.86111 -2.457031,1.32227 -0.790241,-0.46116 -1.706041,-0.83746 -2.457031,-1.32227 -10.662652,-6.88341 -17.109131,-15.95233 -17.955078,-24.88281 0.02426,-3.15737 1.016942,-5.48569 2.628906,-7.09766 1.631735,-1.63173 3.982136,-2.64649 7.199219,-2.64648 z"
       id="path836-6-6"
       inkscape:connector-curvature="0"
       sodipodi:nodetypes="cccccccccccccccccccccccccccccccccccccccccccccccsccssccccscccccccs" />
  </g>
</svg>
